<?xml version="1.0" encoding="utf-8"?>
<!-- Generator: Adobe Illustrator 24.0.1, SVG Export Plug-In . SVG Version: 6.00 Build 0)  -->
<svg version="1.1" id="Calque_1" xmlns="http://www.w3.org/2000/svg" xmlns:xlink="http://www.w3.org/1999/xlink" x="0px" y="0px"
	 viewBox="0 0 485.9 98.9" style="enable-background:new 0 0 485.9 98.9;" xml:space="preserve">
<title>Fichier 2</title>
<g id="Calque_2_1_">
	<g id="Calque_2-2">
		<path d="M452.3,37.5c2.3-3.5,5.1-6.1,9-7.2c6.8-2,16.1-0.6,20.9,6.5c1.4,2.1,2.4,4.5,3,7c0.9,4.2,1,8.5,0.5,12.8
			c-0.8,6.4-2.6,12.7-5.4,18.5c-2.5,5.5-6,10.4-10.3,14.7c-0.4,0.6-1.2,0.8-1.9,0.3c0,0,0,0,0,0c-1.7-1-3.4-1.9-5.1-2.8
			c-0.6-0.3-0.9-0.7-0.5-1.5c3.4-6.4,4.9-13.3,6.1-20.3c1-5.7,1.3-11.6,0.9-17.4c0-2.5-0.7-5-2.1-7.2c-1.5-2.4-4.7-3-7.1-1.5
			c-0.6,0.4-1.1,0.9-1.5,1.5c-1.7,2.3-2.1,5.1-2.6,7.8c-0.7,4.5-0.5,9.1-0.5,13.7c0,5.5,0,11,0,16.4c0,1.2-0.4,1.5-1.6,1.5
			c-4.4-0.1-8.9-0.1-13.3,0c-1.1,0-1.5-0.3-1.5-1.4c0-9,0.1-18.1,0-27.1c0-2.7-0.3-5.3-1-7.9c-0.3-1.5-1.1-2.9-2.2-4.1
			c-1.7-1.7-4.4-1.7-6,0c-0.2,0.2-0.4,0.4-0.6,0.7c-1.2,1.8-1.9,3.8-2.2,5.9c-0.5,2.8-0.7,5.7-0.6,8.6v23.6c0,1.7,0,1.7-1.7,1.7
			c-4.5,0-9,0-13.5,0c-1,0-1.3-0.3-1.3-1.3c0-15.7,0-31.5,0-47.2c0-1,0.3-1.3,1.3-1.3c1.6,0.1,3.2,0.1,4.8,0c0.9-0.1,1.7,0.4,2,1.3
			c1,2.2,2,4.3,3,6.5c0.1,0.3,0.2,0.8,0.6,0.7s0.4-0.4,0.5-0.7c1.8-3.4,4.3-6.2,7.9-7.6c5.6-2.2,14.9-1.8,19.6,3.7
			C450.8,35.3,451.5,36.4,452.3,37.5z"/>
		<path d="M168.2,49.7c0,9.7,0,19.5,0,29.2c0,1.1-0.3,1.4-1.4,1.4c-5.4-0.1-10.7-0.1-16.1,0c-1.1,0-1.4-0.3-1.4-1.4
			c0-7.6,0-15.2,0-22.8c0-1.2-0.3-1.5-1.5-1.5c-5.3,0.1-10.7,0.1-16.1,0c-1.1,0-1.4,0.2-1.4,1.3c0.1,7.5,0,15,0,22.6
			c0,1.8,0,1.8-1.7,1.8c-5.2,0-10.4,0-15.6,0c-1.3,0-1.7-0.3-1.7-1.7c0-19.4,0-38.8,0-58.1c0-1.3,0.4-1.6,1.6-1.6
			c5.2,0,10.5,0.1,15.7,0c1.4,0,1.7,0.4,1.7,1.7c-0.1,7.6,0,15.1-0.1,22.7c0,1.1,0.3,1.3,1.3,1.3c5.4,0,10.8,0,16.2,0
			c1.1,0,1.4-0.3,1.4-1.4c0-7.6,0-15.2-0.1-22.8c0-1.1,0.3-1.5,1.4-1.5c5.4,0.1,10.7,0,16.1,0c1,0,1.3,0.3,1.3,1.3
			C168.2,30,168.2,39.8,168.2,49.7z"/>
		<path d="M392.9,34.3c-8.9-5.9-18.4-6.5-28.2-2.4c-9.5,3.9-15.6,13-15.7,24.1c0,6.2,2.6,12.2,7,16.6c9,8.8,19.7,10.7,31.3,6.5
			c9.6-3.5,15.5-10.6,16.7-20.9C405.1,48.1,401.4,39.9,392.9,34.3z M384.6,68.2c-3.4,6.5-12,6.4-15.8,0.1c-2.2-4-3.3-8.6-3.1-13.2
			c-0.1-4.3,0.8-8.5,2.7-12.3c1.8-3.3,4.4-5.3,8.3-5.3c3.8-0.1,7.1,2.2,8.4,5.7C388.6,51.6,388.8,60.1,384.6,68.2L384.6,68.2z"/>
		<path d="M229.5,53.8c-0.1-6.7-3.2-13-8.3-17.3c-8.2-7-17.8-8.8-28.1-5.7c-9.5,2.9-15.9,9.2-18.1,19c-1.9,7.6,0.1,15.7,5.3,21.5
			c5.1,6.1,12.6,9.6,20.5,9.7c6.6,0,11.7-1.2,16.6-4.3C225.8,71.5,229.9,63.8,229.5,53.8z M212.8,57.8c-0.1,3.7-1.1,7.2-2.9,10.4
			c-2.4,4.4-7.9,5.9-12.2,3.6c-1.5-0.8-2.7-2-3.5-3.5c-2.2-3.9-3.3-8.4-3.2-12.9c0-4.8,0.8-9.2,3.1-13.2c2.4-4.4,7.9-6,12.2-3.6
			c1.5,0.8,2.7,2.1,3.6,3.6C212.7,47.1,213.2,52.4,212.8,57.8L212.8,57.8z"/>
		<path d="M323.5,72.1h15c2.5,0,5,0,7.5,0c0.9,0,1.1,0.3,1.1,1.1c0,2,0,4,0,6c0,0.7-0.2,1-1,1c-13.5,0-27.1,0-40.6,0
			c-0.7,0-1-0.2-1-1c0-1.8,0-3.7,0-5.5c0-0.6,0.2-1.1,0.6-1.6L327,40c0.1-0.1,0.2-0.2,0.2-0.3c0.1-0.3,0.6-0.6,0.4-1s-0.6-0.1-1-0.1
			h-19.3c-2.9,0-2.9,0-2.9-2.8c0-1.2,0.1-2.4,0-3.6s0.3-1.6,1.6-1.6c8,0.1,16,0,24,0c5.2,0,10.4,0,15.5,0c1.2,0,1.4,0.4,1.5,1.5
			c0.4,3.9-0.8,7.1-3.1,10.3c-6.6,9.2-12.8,18.6-19.2,27.9C324.4,70.7,324,71.3,323.5,72.1z"/>
		<path d="M269,51.9c-0.8-2.7-1.8-5.4-2.9-8c-0.7-1.6-1.8-3-3-4.2c-1.8-1.7-4.7-1.7-6.5,0c-1.5,1.4-2.5,3.3-3,5.2
			c-1,3.2-1.4,6.6-1.4,9.9c0,8,0,15.9,0,23.8c0,1.2-0.3,1.4-1.5,1.4c-4.6-0.1-9.2,0-13.9,0c-0.9,0-1.2-0.2-1.2-1.1
			c0-15.8,0-31.6,0-47.5c0-0.9,0.3-1.1,1.1-1.1c1.8,0.1,3.6,0,5.4,0c0.6-0.1,1.2,0.3,1.4,0.9c1.2,2.4,2.4,4.7,3.6,7.1
			c0.2,0.4,0.2,1,0.7,1s0.6-0.6,0.8-1c1.4-2.4,3.3-4.5,5.5-6.2c3.1-2.2,6.9-3.2,10.7-2.9c3.5,0.1,6.8,1,9.9,2.7
			c1.4,0.8,2.5,1.9,3.4,3.2c0.3,0.4,0.4,0.9,0.1,1.3C275.2,41.6,272.2,46.7,269,51.9z"/>
		<path d="M298.1,55.4c0,7.8,0,15.5,0,23.3c0,1.1-0.3,1.5-1.5,1.5c-4.6-0.1-9.2-0.1-13.8,0c-1.1,0-1.3-0.3-1.3-1.3
			c0-15.6,0-31.3,0-46.9c0-1.1,0.3-1.4,1.4-1.4c4.7,0.1,9.3,0.1,14,0c1,0,1.2,0.3,1.2,1.3C298.1,39.7,298.1,47.6,298.1,55.4z"/>
		<path d="M289.8,11.6c4.8,0.1,8.7,4,8.9,8.8c0.2,4.9-3.7,9-8.5,9.1s-9-3.7-9.1-8.5c0-0.2,0-0.4,0-0.6
			C281.1,15.6,285,11.7,289.8,11.6z"/>
		<path d="M53.5,64.5c16.6-4.4,33.5-5.9,44.7-6.3c-4.8,26.9-30.5,44.8-57.4,40c-10-1.8-19.3-6.6-26.4-13.9
			C23.2,75.7,36.3,69.1,53.5,64.5z"/>
		<path d="M3.2,67.1C-6.5,41.5,6.4,12.9,31.9,3.2C45.7-2,61-0.8,73.8,6.4C58.1,9.6,43.5,16.7,31.2,27.1C18.8,38,9.2,51.7,3.2,67.1z"
			/>
		<path d="M99,49.5c0,1.6-0.1,3.3-0.2,4.9c-33.1,1.5-78.3,9-96,38.3C0,58.1,38.2,11.8,78.4,9.4c7.2,5.2,12.8,12.2,16.4,20.3
			c-35.3,2.6-68.2,22.5-80.3,39.2C50.6,39.2,79,35.6,96.9,35.3C98.3,39.9,99,44.7,99,49.5z"/>
	</g>
</g>
</svg>
