<svg xmlns="http://www.w3.org/2000/svg" viewBox="0 0 485.93 98.95"><defs><style>.cls-1{fill:#e40c7b;}</style></defs><title>Fichier 2</title><g id="Calque_2" data-name="Calque 2"><g id="Calque_2-2" data-name="Calque 2"><path class="cls-1" d="M452.32,37.47c2.31-3.45,5.1-6.1,9-7.24,6.79-2,16.15-.62,20.87,6.48a20.41,20.41,0,0,1,2.95,7,38.59,38.59,0,0,1,.5,12.81,59.73,59.73,0,0,1-5.44,18.52A50.5,50.5,0,0,1,469.9,89.7,1.33,1.33,0,0,1,468,90c-1.69-1-3.43-1.87-5.15-2.8-.65-.34-.88-.67-.46-1.47,3.35-6.38,4.92-13.29,6.09-20.34A77.93,77.93,0,0,0,469.42,48a13.44,13.44,0,0,0-2.08-7.16,5.11,5.11,0,0,0-8.57,0c-1.66,2.35-2.15,5.08-2.58,7.83-.7,4.53-.45,9.1-.47,13.66,0,5.47,0,11,0,16.42,0,1.22-.39,1.54-1.57,1.52q-6.66-.09-13.33,0c-1.14,0-1.47-.28-1.47-1.45.05-9,.07-18.08,0-27.12a31.69,31.69,0,0,0-1-7.86,8.17,8.17,0,0,0-2.21-4.06,4.27,4.27,0,0,0-6.59.64,14.76,14.76,0,0,0-2.2,5.93,44.56,44.56,0,0,0-.6,8.56v23.6c0,1.73,0,1.74-1.71,1.74-4.49,0-9,0-13.47,0-1,0-1.34-.32-1.34-1.34q0-23.59,0-47.19c0-1,.27-1.32,1.26-1.27,1.61.07,3.23.08,4.84,0a1.8,1.8,0,0,1,2,1.28c.95,2.19,2,4.34,3,6.5.14.32.21.75.62.74s.35-.44.49-.69c1.82-3.39,4.26-6.15,7.92-7.59,5.56-2.19,14.91-1.83,19.59,3.73C450.77,35.33,451.48,36.37,452.32,37.47Z"/><path class="cls-1" d="M168.23,49.66c0,9.73,0,19.46,0,29.2,0,1.09-.29,1.41-1.38,1.4-5.36-.05-10.72-.06-16.07,0-1.1,0-1.39-.33-1.38-1.41,0-7.6,0-15.21,0-22.81,0-1.15-.31-1.46-1.47-1.45q-8,.09-16.07,0c-1.07,0-1.39.23-1.38,1.33.05,7.52,0,15,0,22.56,0,1.75,0,1.75-1.69,1.75-5.19,0-10.37,0-15.56,0-1.28,0-1.72-.3-1.71-1.66q.06-29.07,0-58.14c0-1.29.42-1.61,1.64-1.59,5.23.05,10.46.07,15.69,0,1.37,0,1.67.44,1.66,1.72-.06,7.56,0,15.13-.06,22.69,0,1.07.32,1.27,1.31,1.26,5.4,0,10.81-.05,16.21,0,1.08,0,1.4-.29,1.39-1.38,0-7.6,0-15.21-.05-22.81,0-1.13.26-1.5,1.44-1.49,5.36.07,10.72.05,16.08,0,1,0,1.32.27,1.32,1.32C168.21,30,168.23,39.84,168.23,49.66Z"/><path class="cls-1" d="M392.92,34.33c-8.86-5.85-18.42-6.48-28.25-2.41-9.53,3.94-15.6,13-15.7,24.08a23.42,23.42,0,0,0,7,16.55c9,8.78,19.72,10.73,31.32,6.51,9.62-3.48,15.55-10.55,16.72-20.89C405.1,48.12,401.36,39.91,392.92,34.33Zm-8.37,33.85c-3.4,6.46-12,6.41-15.75.13a24.87,24.87,0,0,1-3.12-13.15,25.37,25.37,0,0,1,2.74-12.29c1.77-3.32,4.41-5.34,8.31-5.32a8.72,8.72,0,0,1,8.43,5.74C388.58,51.62,388.8,60.08,384.55,68.18Z"/><path class="cls-1" d="M229.49,53.84a23.28,23.28,0,0,0-8.34-17.34c-8.25-7-17.8-8.79-28.1-5.66-9.54,2.9-15.85,9.17-18.06,19a23.85,23.85,0,0,0,5.29,21.55,27.08,27.08,0,0,0,20.47,9.65c6.56,0,11.7-1.24,16.59-4.28C225.8,71.52,229.9,63.79,229.49,53.84Zm-16.68,4a23.19,23.19,0,0,1-2.88,10.44,9,9,0,0,1-15.74.06A24.66,24.66,0,0,1,191,55.42c0-4.78.75-9.18,3.12-13.19a9,9,0,0,1,15.78,0C212.73,47.08,213.18,52.41,212.81,57.85Z"/><path class="cls-1" d="M323.46,72.12h15c2.49,0,5,0,7.45,0,.89,0,1.13.28,1.12,1.11q-.06,3,0,6c0,.72-.21,1-1,1q-20.32,0-40.65,0c-.73,0-1-.21-1-1,0-1.82,0-3.65,0-5.47A2.59,2.59,0,0,1,305,72.2L327,40a2.57,2.57,0,0,0,.22-.32c.15-.33.64-.59.4-1s-.64-.14-1-.14H307.32c-2.88,0-2.88,0-2.88-2.85,0-1.21.08-2.44,0-3.64s.29-1.63,1.58-1.62c8,.06,16,0,24.05,0,5.18,0,10.37,0,15.55,0,1.17,0,1.37.38,1.49,1.48.42,3.91-.78,7.11-3.09,10.33-6.58,9.18-12.84,18.6-19.23,27.92C324.37,70.74,324,71.32,323.46,72.12Z"/><path class="cls-1" d="M269,51.91a75.27,75.27,0,0,0-2.88-8,13.29,13.29,0,0,0-3.05-4.18,4.77,4.77,0,0,0-6.52,0,10.89,10.89,0,0,0-3,5.25,33.44,33.44,0,0,0-1.37,9.9c0,8,0,15.9,0,23.85,0,1.16-.32,1.45-1.46,1.44-4.62-.07-9.24,0-13.86,0-.88,0-1.21-.19-1.21-1.14q0-23.72,0-47.45c0-.87.29-1.11,1.13-1.08,1.78.06,3.57,0,5.36,0a1.32,1.32,0,0,1,1.4.86c1.17,2.38,2.39,4.73,3.61,7.08.18.36.19,1,.7,1s.56-.61.78-1a19.36,19.36,0,0,1,5.51-6.16,16.36,16.36,0,0,1,10.74-2.91,21.7,21.7,0,0,1,9.85,2.7,10.65,10.65,0,0,1,3.41,3.17,1.06,1.06,0,0,1,.12,1.3C275.24,41.6,272.18,46.65,269,51.91Z"/><path class="cls-1" d="M298.09,55.42c0,7.77,0,15.54,0,23.32,0,1.13-.29,1.48-1.46,1.46q-6.92-.11-13.84,0c-1.07,0-1.32-.34-1.32-1.34q0-23.46,0-46.91c0-1.09.33-1.39,1.41-1.37q7,.08,14,0c1,0,1.24.3,1.24,1.26C298.08,39.7,298.09,47.56,298.09,55.42Z"/><path class="cls-1" d="M289.83,11.64a9,9,0,0,1,8.85,8.81,8.85,8.85,0,1,1-17.69,0A8.94,8.94,0,0,1,289.83,11.64Z"/><path d="M53.53,64.53c16.6-4.41,33.52-5.87,44.65-6.33A49.47,49.47,0,0,1,14.34,84.3C23.22,75.71,36.33,69.09,53.53,64.53Z"/><path d="M3.22,67.06A49.49,49.49,0,0,1,73.82,6.4,94.79,94.79,0,0,0,31.25,27.14,100.88,100.88,0,0,0,3.22,67.06Z"/><path class="cls-1" d="M99,49.47a47.36,47.36,0,0,1-.25,4.94C65.61,55.93,20.43,63.46,2.75,92.7,0,58.08,38.18,11.83,78.44,9.37A49.57,49.57,0,0,1,94.82,29.66C59.51,32.24,26.66,52.2,14.52,68.83,50.58,39.21,79,35.6,96.89,35.32A49.36,49.36,0,0,1,99,49.47Z"/></g></g></svg>