<svg xmlns="http://www.w3.org/2000/svg" viewBox="0 0 471 471"><defs><style>.cls-1{fill:#e40c7b;}</style></defs><title>Fichier 3</title><g id="Calque_2" data-name="Calque 2"><g id="Calque_1-2" data-name="Calque 1"><path d="M254.83,307.15c79-21,159.52-27.93,212.51-30.1-19.63,110.25-116,194-231.84,194A234.65,234.65,0,0,1,68.27,401.27C110.53,360.39,172.94,328.88,254.83,307.15Z"/><path d="M15.33,319.23A234.92,234.92,0,0,1,0,235.5C0,105.44,105.44,0,235.5,0A234.19,234.19,0,0,1,351.38,30.46c-75.82,15.82-144.63,49.17-202.61,98.71C90.54,178.9,45.44,243.44,15.33,319.23Z"/><path class="cls-1" d="M471,235.5a228.12,228.12,0,0,1-1.18,23.5C312.29,266.22,97.27,302.05,13.09,441.27,0,276.46,181.74,56.32,373.37,44.59a235.77,235.77,0,0,1,78,96.61C283.27,153.48,126.89,248.48,69.11,327.65c171.66-141,307-158.19,392.09-159.52A235.22,235.22,0,0,1,471,235.5Z"/></g></g></svg>